<?xml version="1.0" standalone="no"?>
<!DOCTYPE svg PUBLIC "-//W3C//DTD SVG 20010904//EN"
 "http://www.w3.org/TR/2001/REC-SVG-20010904/DTD/svg10.dtd">
<svg version="1.0" xmlns="http://www.w3.org/2000/svg"
 width="380.000000pt" height="380.000000pt" viewBox="0 0 380.000000 380.000000"
 preserveAspectRatio="xMidYMid meet">

<g transform="translate(0.000000,380.000000) scale(0.100000,-0.100000)"
fill="#000000" stroke="none">
<path d="M1582 2976 c-182 -30 -308 -93 -431 -217 -53 -53 -112 -150 -134
-220 -3 -10 -31 -22 -73 -32 -37 -9 -91 -28 -119 -41 -68 -31 -80 -62 -80
-207 l0 -107 -45 -6 c-25 -3 -55 -8 -68 -12 -21 -6 -22 -4 -22 58 0 36 -5 71
-12 80 -33 40 -110 25 -127 -24 -6 -17 -11 -71 -11 -120 0 -82 -2 -91 -30
-129 -41 -57 -67 -133 -79 -229 -6 -45 -13 -85 -16 -89 -2 -5 -17 -11 -32 -14
-43 -9 -106 -69 -136 -130 -50 -103 -55 -312 -8 -392 11 -20 34 -37 66 -50 42
-16 54 -27 72 -65 12 -25 35 -53 50 -62 34 -20 130 -33 178 -24 42 8 98 54
115 96 l12 30 319 0 c198 0 319 -4 319 -10 0 -27 45 -123 70 -150 26 -28 32
-30 103 -30 42 0 88 5 104 12 l28 11 -35 7 c-20 3 -41 10 -48 14 -20 12 -49
76 -62 138 -12 52 -11 66 10 145 12 49 34 119 48 156 25 68 25 68 60 65 46 -4
69 -36 84 -118 12 -72 -1 -215 -26 -275 -12 -29 -12 -32 3 -31 11 1 15 -6 14
-24 -3 -23 -2 -24 11 -7 27 35 50 158 50 267 0 98 1 102 12 65 7 -22 13 -49
13 -59 1 -11 4 -17 7 -13 8 8 -13 124 -37 203 -24 76 -57 114 -100 114 -61 0
-150 -123 -194 -270 -22 -73 -27 -82 -61 -102 -57 -33 -157 -40 -548 -39 -474
1 -545 11 -581 81 -20 39 -20 96 1 104 9 3 46 6 84 6 64 0 68 -1 74 -25 9 -37
37 -46 134 -43 l87 3 3 33 c3 27 7 32 31 32 22 0 29 -6 36 -32 l10 -33 87 -3
c96 -3 125 6 134 42 5 23 10 24 132 30 281 14 342 19 342 27 0 5 -19 9 -42 9
l-42 0 36 38 c68 71 75 111 26 143 -27 16 -46 19 -108 17 -119 -5 -238 -71
-271 -149 -7 -18 -19 -29 -31 -29 -18 0 -20 5 -14 32 18 90 107 193 210 242
172 82 352 57 516 -72 45 -35 45 -35 -10 22 -183 191 -482 185 -678 -13 l-55
-56 6 40 c4 22 7 97 7 167 l0 128 43 22 c84 44 214 102 327 144 63 24 104 43
90 43 -58 1 -247 -54 -395 -115 l-80 -33 -55 19 c-70 24 -253 27 -325 5 -27
-8 -50 -13 -52 -12 -1 2 9 17 23 35 38 48 103 81 206 105 85 19 123 21 435 21
188 1 344 4 347 7 9 9 -109 26 -264 40 -81 7 -198 9 -294 5 l-159 -7 6 99 c7
109 17 146 44 156 36 15 298 27 509 24 262 -4 248 5 242 -143 -2 -55 -3 -93 0
-85 2 8 13 64 25 124 26 130 34 139 155 164 64 13 84 14 94 4 17 -17 24 -197
9 -216 -7 -8 -16 -43 -20 -78 l-8 -63 -3 75 -2 75 -14 -79 c-7 -44 -19 -83
-26 -88 -23 -15 -82 -28 -126 -28 l-43 0 6 63 c16 167 16 167 41 184 18 11 38
14 77 10 50 -5 51 -5 22 8 -44 20 -109 19 -127 -2 -21 -24 -38 -110 -38 -192
0 -65 -1 -69 -25 -75 -14 -4 -25 -11 -25 -16 0 -11 66 -15 180 -12 l75 2 -109
-55 c-59 -30 -112 -52 -117 -49 -5 3 -9 -2 -9 -11 0 -8 -7 -18 -15 -21 -19 -8
-20 -24 -1 -24 11 0 15 -22 18 -100 4 -131 8 -134 131 -137 l92 -2 -66 10
c-128 17 -139 30 -139 159 l0 80 103 51 c56 28 108 56 116 62 10 9 16 7 27 -8
11 -14 14 -64 15 -209 2 -259 12 -292 27 -91 22 283 21 275 47 275 48 0 55 21
55 155 l0 124 -27 15 c-41 22 -26 20 165 -20 l172 -37 0 -363 c0 -200 -3 -365
-7 -367 -5 -2 -91 0 -193 5 -211 10 -285 5 -296 -20 -4 -9 -9 -97 -12 -195 -5
-236 -7 -232 127 -224 53 3 152 17 220 31 68 14 125 26 127 26 1 0 5 -13 9
-30 4 -16 20 -41 37 -55 31 -27 83 -32 180 -19 l45 6 -19 36 c-10 20 -18 46
-18 58 0 12 -3 29 -6 38 -5 13 -9 13 -27 2 -12 -8 -47 -17 -77 -19 l-55 -6 63
13 c35 8 68 18 74 24 14 14 27 84 28 145 1 115 72 175 116 98 l15 -26 -7 25
c-4 14 -9 30 -11 36 -5 13 28 24 71 24 23 0 27 -3 21 -17 -18 -45 -25 -82 -31
-175 -5 -69 -13 -112 -26 -137 -11 -20 -16 -27 -13 -16 3 11 8 49 10 85 4 62
4 63 -4 15 -11 -64 -33 -115 -59 -139 -12 -10 -19 -23 -16 -28 3 -5 0 -16 -8
-25 -11 -15 -11 -16 7 -9 11 4 50 8 86 9 50 2 72 7 88 21 l21 19 -24 22 c-32
29 -46 83 -46 173 0 102 29 152 78 135 14 -5 15 -3 5 8 -7 7 -13 18 -13 23 0
6 8 -1 18 -14 14 -21 17 -47 17 -149 0 -86 3 -114 9 -93 8 30 8 30 28 10 18
-18 28 -19 82 -14 33 4 86 8 116 9 54 2 55 3 76 44 12 23 24 51 27 62 5 19 13
21 76 21 l71 0 0 33 c0 17 5 49 11 70 6 22 9 40 7 41 -2 0 -115 -1 -253 -4
-189 -4 -252 -2 -260 7 -5 7 -21 17 -35 22 -22 8 -22 10 -5 10 11 1 31 -6 43
-15 19 -13 63 -15 319 -12 163 1 285 5 272 8 l-24 6 22 12 c12 7 46 16 75 21
43 7 21 9 -117 11 l-170 3 238 8 c132 4 240 9 242 11 1 2 5 166 8 365 l6 363
-37 19 c-113 57 -725 288 -1033 390 -145 48 -157 54 -162 79 -26 132 -231 207
-587 217 -103 3 -183 0 -238 -9z m389 -71 c42 -7 110 -23 150 -35 68 -20 72
-23 54 -36 -68 -49 -98 -94 -130 -194 -30 -94 -63 -135 -122 -154 -18 -6 -22
-2 -28 24 -4 17 -12 33 -18 36 -7 2 -194 0 -417 -5 -223 -5 -407 -7 -409 -5
-2 2 17 32 42 67 85 118 205 211 342 262 79 30 191 55 243 55 l37 -1 -28 -20
c-34 -26 -97 -107 -97 -125 0 -7 24 12 54 41 29 30 74 67 100 83 51 32 79 33
227 7z m334 -141 c50 -66 60 -133 60 -414 -1 -146 -8 -332 -19 -460 -9 -118
-16 -248 -14 -289 l3 -75 150 -3 c189 -4 223 -11 140 -28 -33 -7 -66 -10 -74
-7 -15 6 -46 7 -178 10 l-82 2 6 545 6 545 -59 26 c-32 14 -74 28 -91 31 -19
3 -33 12 -33 20 0 46 95 147 133 141 11 -2 35 -21 52 -44z m-90 -152 l70 -28
3 -158 c1 -88 -1 -163 -5 -167 -5 -4 -75 8 -158 27 -82 18 -167 34 -187 34
-30 0 -38 4 -38 19 0 11 12 24 31 32 72 29 117 90 155 212 21 68 27 69 129 29z
m530 -73 c268 -82 850 -274 857 -283 4 -6 7 -163 8 -350 l1 -339 -473 8 c-260
4 -536 10 -613 14 l-140 6 2 85 c1 47 9 164 18 260 9 96 19 290 22 431 l6 257
91 -25 c50 -14 150 -42 221 -64z m-1124 -24 c-19 -9 -50 -17 -70 -20 -56 -7
-586 -17 -580 -11 20 21 253 37 619 44 l65 1 -34 -14z m199 -395 c0 -13 -6
-20 -17 -19 -11 0 -13 3 -5 6 6 2 12 11 12 19 0 8 2 14 5 14 3 0 5 -9 5 -20z
m-997 -215 c36 -15 41 -45 45 -277 l4 -228 -225 0 -226 0 -8 38 c-14 66 -8
343 8 386 16 44 56 70 130 86 48 10 243 6 272 -5z m-470 -347 c4 -40 10 -92
13 -115 l7 -43 -42 0 c-26 0 -40 4 -36 10 12 19 -7 71 -37 106 -30 34 -30 35
-12 56 22 24 74 58 90 58 7 0 14 -30 17 -72z m2660 -35 c-62 -2 -164 -2 -225
0 -62 1 -12 3 112 3 124 0 174 -2 113 -3z m-1702 -22 c25 -20 24 -26 -34 -95
l-24 -28 -137 7 c-80 4 -136 12 -136 18 0 5 16 25 35 43 68 64 245 97 296 55z
m-1058 -19 c9 -8 17 -26 17 -39 0 -18 -5 -23 -24 -23 -13 0 -32 -3 -42 -7 -15
-6 -16 -2 -10 37 10 66 15 69 59 32z m1385 -2 c26 -25 30 -40 5 -18 -10 8 -27
20 -38 26 -15 9 -16 11 -4 12 8 0 25 -9 37 -20z m789 -50 c13 -38 18 -230 6
-230 -5 -1 -74 -9 -155 -19 l-147 -17 -5 85 c-4 47 -8 114 -11 148 l-4 62 97
4 c53 2 122 3 152 3 54 -1 55 -2 67 -36z m298 30 c3 -6 -1 -7 -9 -4 -18 7 -21
14 -7 14 6 0 13 -4 16 -10z m-651 -37 c3 -21 6 -88 6 -149 0 -107 -1 -112 -22
-118 -39 -10 -196 -7 -203 5 -20 32 -16 235 5 269 9 15 72 26 156 29 l51 1 7
-37z m-1826 -30 c-10 -2 -28 -2 -40 0 -13 2 -5 4 17 4 22 1 32 -1 23 -4z m332
-82 c0 -27 -29 -34 -106 -26 -48 6 -67 12 -75 26 -9 18 -5 19 86 19 87 0 95
-2 95 -19z m290 4 c0 -23 -46 -36 -114 -33 -55 3 -61 5 -64 26 -3 21 -1 22 87
22 75 0 91 -3 91 -15z m1427 -181 c-3 -3 -12 -4 -19 -1 -8 3 -5 6 6 6 11 1 17
-2 13 -5z m304 -47 c-10 -9 -11 -8 -5 6 3 10 9 15 12 12 3 -3 0 -11 -7 -18z"/>
<path d="M3430 1488 c-29 -11 -25 -15 14 -10 28 3 35 0 41 -17 3 -12 13 -21
20 -21 8 0 19 -8 24 -17 13 -23 14 -2 1 31 -9 24 -7 26 16 26 22 0 23 -2 13
-21 -10 -19 -8 -20 10 -14 26 8 38 -16 50 -100 l9 -60 1 50 c1 69 -14 127 -39
147 -22 18 -118 22 -160 6z"/>
<path d="M3450 1384 c-6 -30 -9 -77 -5 -103 12 -88 20 -70 20 45 0 63 -1 114
-2 114 -1 0 -7 -25 -13 -56z"/>
<path d="M3353 1360 c-25 -57 -45 -63 -68 -22 -16 26 -16 25 -10 -40 7 -81 21
-126 43 -132 10 -2 43 -4 74 -5 l58 0 -30 27 c-35 32 -53 106 -43 177 3 25 4
45 2 45 -2 0 -14 -23 -26 -50z"/>
<path d="M3572 1378 c-13 -13 -16 -75 -6 -102 11 -29 34 3 34 48 0 51 -11 71
-28 54z"/>
<path d="M3487 1374 c-11 -12 -8 -102 4 -110 18 -11 29 17 27 65 -3 42 -16 60
-31 45z"/>
<path d="M2534 1344 c-37 -55 -18 -216 21 -184 20 17 38 105 30 149 -9 56 -29
70 -51 35z"/>
<path d="M2700 1318 c-14 -51 -8 -115 14 -136 14 -14 17 -12 31 21 24 59 14
149 -17 155 -12 2 -20 -8 -28 -40z"/>
<path d="M1548 1333 c-58 -64 -44 -313 17 -313 47 0 75 218 38 289 -22 42 -34
47 -55 24z"/>
<path d="M3612 1260 c0 -14 2 -19 5 -12 2 6 2 18 0 25 -3 6 -5 1 -5 -13z"/>
<path d="M3527 1219 c-15 -36 -8 -44 30 -37 17 3 17 5 1 37 l-17 34 -14 -34z"/>
</g>
</svg>
