<?xml version="1.0" standalone="no"?>
<!DOCTYPE svg PUBLIC "-//W3C//DTD SVG 20010904//EN"
 "http://www.w3.org/TR/2001/REC-SVG-20010904/DTD/svg10.dtd">
<svg version="1.0" xmlns="http://www.w3.org/2000/svg"
 width="801.000000pt" height="342.000000pt" viewBox="0 0 801.000000 342.000000"
 preserveAspectRatio="xMidYMid meet">

<g transform="translate(0.000000,342.000000) scale(0.100000,-0.100000)"
fill="#000000" stroke="none">
<path d="M3690 3235 l0 -155 764 0 c420 0 771 3 780 6 14 5 16 28 16 155 l0
149 -780 0 -780 0 0 -155z"/>
<path d="M468 3350 c-312 -39 -455 -234 -418 -571 16 -143 65 -271 134 -348
11 -13 92 -77 178 -143 87 -65 160 -123 163 -129 4 -5 -88 -9 -241 -9 l-247 0
6 -192 c4 -127 11 -213 21 -251 60 -220 208 -307 520 -307 308 0 479 96 552
310 16 45 19 83 18 210 -1 218 -34 341 -121 449 -54 67 -96 103 -280 236 -92
66 -176 133 -187 148 -17 23 -22 46 -25 118 -4 106 11 142 57 137 41 -5 52
-38 52 -165 l0 -113 241 0 242 0 -7 106 c-21 328 -98 448 -318 499 -81 18
-254 26 -340 15z m150 -1309 c24 -50 27 -67 27 -157 0 -87 -3 -105 -19 -123
-27 -30 -58 -23 -78 19 -15 28 -18 62 -18 175 0 77 3 150 6 163 l7 23 24 -22
c13 -13 36 -48 51 -78z"/>
<path d="M6970 2162 l0 -1019 -107 34 c-60 19 -133 42 -163 52 l-55 18 -3 152
-3 153 -37 -7 c-20 -4 -40 -9 -44 -11 -10 -6 -11 -1464 -2 -1464 4 0 24 5 45
12 l39 11 0 504 c0 304 4 503 9 503 5 0 80 -23 165 -50 l156 -51 0 -123 0
-123 107 -23 c60 -12 114 -25 121 -27 10 -4 12 243 10 1233 l-3 1239 -117 3
-118 3 0 -1019z"/>
<path d="M7250 1945 c0 -981 3 -1235 13 -1235 6 0 22 3 35 6 l22 6 0 730 c0
442 4 727 9 723 5 -3 51 -73 101 -155 l92 -150 204 0 c112 0 204 3 204 6 0 3
-73 111 -162 241 -254 367 -240 344 -221 373 9 14 83 121 165 238 81 117 148
215 148 217 0 3 -85 5 -189 5 l-190 0 -78 -127 -78 -128 -3 243 -2 242 -35 0
-35 0 0 -1235z"/>
<path d="M4280 2445 l0 -575 175 0 175 0 0 575 0 575 -175 0 -175 0 0 -575z"/>
<path d="M2482 2990 c-24 -11 -57 -29 -73 -41 l-29 -20 0 30 0 31 -175 0 -175
0 0 -620 0 -620 173 2 172 3 3 103 c1 56 6 102 11 102 5 0 14 -7 22 -16 21
-25 87 -55 137 -61 104 -12 193 43 234 145 21 54 23 73 26 382 5 425 -6 487
-101 564 -34 27 -47 31 -110 34 -56 2 -82 -2 -115 -18z m-38 -226 c14 -13 16
-55 16 -305 0 -181 -4 -298 -10 -310 -6 -10 -19 -19 -30 -19 -11 0 -24 9 -30
19 -6 12 -10 129 -10 310 0 250 2 292 16 305 8 9 19 16 24 16 5 0 16 -7 24
-16z"/>
<path d="M3099 2995 c-64 -20 -137 -72 -176 -123 -58 -76 -63 -113 -63 -429 0
-253 2 -289 19 -338 47 -134 155 -207 326 -222 140 -11 261 30 335 115 55 62
72 117 77 255 l5 117 -171 0 -171 0 0 -113 c0 -121 -10 -152 -46 -145 -18 3
-19 14 -22 151 l-3 147 207 0 206 0 -4 173 c-3 172 -3 173 -36 239 -37 76 -83
120 -162 157 -47 22 -71 26 -165 28 -76 2 -124 -2 -156 -12z m165 -221 c12
-11 16 -35 16 -85 l0 -69 -35 0 -35 0 0 73 c0 89 18 117 54 81z"/>
<path d="M1210 2553 c0 -470 5 -520 51 -587 63 -93 218 -113 323 -41 34 23 36
23 36 5 0 -19 8 -20 175 -20 l175 0 0 540 0 540 -175 0 -175 0 0 -425 c0 -386
-2 -426 -16 -432 -41 -16 -44 10 -44 444 l0 413 -175 0 -175 0 0 -437z"/>
<path d="M4153 2976 c-52 -17 -109 -51 -128 -79 -14 -21 -15 -20 -15 21 l0 42
-170 0 -170 0 0 -540 0 -540 175 0 175 0 0 314 0 314 26 31 c24 29 30 31 95
31 l69 0 0 210 c0 116 -3 210 -7 209 -5 0 -27 -6 -50 -13z"/>
<path d="M5164 2959 c-23 -11 -55 -33 -70 -49 -16 -16 -32 -30 -36 -30 -5 0
-8 18 -8 40 l0 40 -165 0 -165 0 0 -540 0 -540 170 0 170 0 1 298 c0 202 4
308 12 332 16 48 66 73 130 66 l47 -5 0 204 0 205 -22 0 c-13 -1 -42 -10 -64
-21z"/>
<path d="M5537 2959 c-88 -21 -151 -70 -189 -147 -19 -40 -23 -66 -26 -174
l-4 -128 143 0 144 -1 -83 -37 c-97 -43 -154 -88 -182 -142 -17 -34 -20 -59
-20 -180 0 -150 9 -191 53 -238 65 -70 191 -84 291 -34 51 26 56 27 56 10 0
-17 11 -18 170 -18 l170 0 0 418 c0 444 -4 482 -50 552 -59 90 -163 131 -329
129 -58 -1 -123 -5 -144 -10z m171 -282 c3 -94 2 -98 -24 -122 -15 -14 -30
-25 -34 -25 -11 0 -22 145 -14 188 8 47 22 64 48 60 19 -3 21 -10 24 -101z
m-13 -596 c-12 -12 -19 -13 -33 -5 -13 9 -18 28 -20 90 -4 96 0 113 35 155
l28 33 3 -129 c2 -106 0 -131 -13 -144z"/>
<path d="M6387 2955 c-71 -20 -149 -75 -184 -131 -54 -85 -58 -112 -58 -424 1
-273 2 -287 23 -342 29 -73 95 -141 170 -176 53 -25 67 -26 197 -27 130 0 144
2 189 25 126 64 186 183 186 370 l0 80 -165 0 -165 0 0 -102 c0 -109 -12 -150
-45 -156 -42 -9 -45 15 -45 343 0 323 1 335 42 335 27 0 38 -40 38 -141 l0
-89 165 0 165 0 0 63 c-1 177 -67 307 -183 358 -43 19 -72 23 -167 26 -75 1
-132 -3 -163 -12z"/>
<path d="M3020 1719 c-481 -28 -936 -100 -1368 -216 -181 -48 -228 -68 -77
-32 297 70 730 131 1150 161 223 16 889 15 1130 -1 709 -47 1407 -158 2090
-332 154 -39 290 -73 303 -76 22 -5 22 -7 22 -174 0 -93 -2 -169 -5 -169 -2 0
-57 20 -122 44 -175 65 -501 170 -717 231 -1526 432 -2987 498 -4183 189 -163
-42 -279 -79 -313 -99 -24 -15 -24 -15 15 -9 22 4 108 24 190 45 625 158 1609
184 2430 63 646 -96 1236 -281 1600 -504 162 -99 305 -255 305 -332 0 -21 -2
-20 250 -123 102 -42 271 -118 376 -170 154 -76 212 -99 299 -120 59 -14 109
-25 111 -25 2 0 4 332 4 738 l0 738 -92 18 c-51 10 -105 20 -120 23 l-28 6 0
-122 c0 -112 -1 -122 -17 -117 -10 3 -63 17 -118 31 -703 179 -1468 297 -2160
335 -208 11 -758 11 -955 -1z"/>
<path d="M1448 1443 c7 -3 16 -2 19 1 4 3 -2 6 -13 5 -11 0 -14 -3 -6 -6z"/>
</g>
</svg>
